<svg width="32" height="32" viewBox="0 0 32 32" fill="none" xmlns="http://www.w3.org/2000/svg">
    <rect width="32" height="32" rx="7" fill="url(#paint0_linear_4069_8034)"/>
    <path d="M20.0231 12.35C20.3756 13.9423 19.9545 15.3043 18.7596 16.4361C19.5708 16.5456 20.3036 16.8812 20.958 17.443C21.6124 18.0048 22.0769 18.9057 22.3514 20.1458C22.6226 21.3706 22.3786 22.4445 21.6193 23.3674C20.8753 24.287 19.6536 24.9349 17.9542 25.3112L12.5345 26.5111C12.2742 26.5688 12.0413 26.532 11.8356 26.4009C11.6265 26.2545 11.4897 26.0358 11.4253 25.7449L8.17114 11.0474C8.13385 10.879 8.13309 10.7667 8.16885 10.7106C8.21653 10.6358 8.32457 10.5798 8.49298 10.5425L13.729 9.38318C17.3115 8.58997 19.4096 9.57892 20.0231 12.35ZM13.3126 13.3781L13.9787 16.3865L14.0935 16.361C15.5633 16.0356 16.1897 15.383 15.9727 14.4032C15.8541 13.8673 15.6222 13.5091 15.2771 13.3286C14.9473 13.1446 14.4532 13.1255 13.7949 13.2713L13.3126 13.3781ZM14.5787 19.0963L15.2397 22.0818L15.653 21.9903C16.3114 21.8445 16.7665 21.6152 17.0185 21.3025C17.2704 20.9897 17.3371 20.5654 17.2185 20.0296C17.0998 19.4937 16.8713 19.1508 16.533 19.0009C16.2099 18.8476 15.7193 18.8438 15.0609 18.9896L14.5787 19.0963Z" fill="black"/>
    <mask id="path-3-outside-1_4069_8034" maskUnits="userSpaceOnUse" x="7.93599" y="3.68568" width="18.7526" height="21.7934" fill="black">
    <rect fill="white" x="7.93599" y="3.68568" width="18.7526" height="21.7934"/>
    <path d="M21.6122 9.83309C21.9647 11.4253 21.5436 12.7874 20.3487 13.9192C21.1599 14.0286 21.8927 14.3643 22.5471 14.9261C23.2015 15.4878 23.666 16.3888 23.9405 17.6289C24.2117 18.8537 23.9677 19.9275 23.2084 20.8505C22.4644 21.7701 21.2427 22.418 19.5433 22.7942L14.1236 23.9942C13.8633 24.0518 13.6304 24.0151 13.4247 23.884C13.2156 23.7375 13.0788 23.5189 13.0144 23.228L9.76025 8.53044C9.72296 8.36203 9.7222 8.24978 9.75796 8.19368C9.80564 8.11888 9.91369 8.06284 10.0821 8.02555L15.3181 6.86625C18.9006 6.07304 20.9987 7.06199 21.6122 9.83309ZM14.9017 10.8611L15.5678 13.8695L15.6826 13.8441C17.1524 13.5187 17.7788 12.8661 17.5618 11.8862C17.4432 11.3504 17.2113 10.9922 16.8662 10.8116C16.5364 10.6277 16.0423 10.6086 15.384 10.7544L14.9017 10.8611ZM16.1678 16.5794L16.8288 19.5648L17.2422 19.4733C17.9005 19.3276 18.3556 19.0983 18.6076 18.7855C18.8596 18.4728 18.9262 18.0485 18.8076 17.5126C18.6889 16.9768 18.4604 16.6339 18.1221 16.484C17.7991 16.3306 17.3084 16.3269 16.65 16.4726L16.1678 16.5794Z"/>
    </mask>
    <path d="M21.6122 9.83309C21.9647 11.4253 21.5436 12.7874 20.3487 13.9192C21.1599 14.0286 21.8927 14.3643 22.5471 14.9261C23.2015 15.4878 23.666 16.3888 23.9405 17.6289C24.2117 18.8537 23.9677 19.9275 23.2084 20.8505C22.4644 21.7701 21.2427 22.418 19.5433 22.7942L14.1236 23.9942C13.8633 24.0518 13.6304 24.0151 13.4247 23.884C13.2156 23.7375 13.0788 23.5189 13.0144 23.228L9.76025 8.53044C9.72296 8.36203 9.7222 8.24978 9.75796 8.19368C9.80564 8.11888 9.91369 8.06284 10.0821 8.02555L15.3181 6.86625C18.9006 6.07304 20.9987 7.06199 21.6122 9.83309ZM14.9017 10.8611L15.5678 13.8695L15.6826 13.8441C17.1524 13.5187 17.7788 12.8661 17.5618 11.8862C17.4432 11.3504 17.2113 10.9922 16.8662 10.8116C16.5364 10.6277 16.0423 10.6086 15.384 10.7544L14.9017 10.8611ZM16.1678 16.5794L16.8288 19.5648L17.2422 19.4733C17.9005 19.3276 18.3556 19.0983 18.6076 18.7855C18.8596 18.4728 18.9262 18.0485 18.8076 17.5126C18.6889 16.9768 18.4604 16.6339 18.1221 16.484C17.7991 16.3306 17.3084 16.3269 16.65 16.4726L16.1678 16.5794Z" fill="white"/>
    <path d="M20.3487 13.9192L19.8431 13.3854L18.7274 14.4423L20.2504 14.6478L20.3487 13.9192ZM22.5471 14.9261L23.0261 14.3682L23.0261 14.3682L22.5471 14.9261ZM23.2084 20.8505L22.6406 20.3834L22.6368 20.388L23.2084 20.8505ZM13.4247 23.884L13.0029 24.4862L13.016 24.4954L13.0294 24.504L13.4247 23.884ZM9.75796 8.19368L9.13795 7.79846L9.13795 7.79846L9.75796 8.19368ZM14.9017 10.8611L14.7428 10.1433L14.0249 10.3022L14.1838 11.0201L14.9017 10.8611ZM15.5678 13.8695L14.8499 14.0285L15.0089 14.7464L15.7267 14.5874L15.5678 13.8695ZM16.8662 10.8116L16.5081 11.4538L16.5166 11.4586L16.5254 11.4631L16.8662 10.8116ZM16.1678 16.5794L16.0088 15.8615L15.291 16.0205L15.4499 16.7383L16.1678 16.5794ZM16.8288 19.5648L16.1109 19.7238L16.2699 20.4417L16.9877 20.2827L16.8288 19.5648ZM18.6076 18.7855L19.1802 19.2468L19.1802 19.2468L18.6076 18.7855ZM18.1221 16.484L17.8068 17.1482L17.8155 17.1523L17.8242 17.1562L18.1221 16.484ZM20.8943 9.99203C21.1904 11.3293 20.8526 12.4292 19.8431 13.3854L20.8544 14.453C22.2346 13.1455 22.7391 11.5214 22.3301 9.67415L20.8943 9.99203ZM20.2504 14.6478C20.9132 14.7373 21.5155 15.0094 22.0682 15.4839L23.0261 14.3682C22.27 13.7191 21.4067 13.32 20.4471 13.1905L20.2504 14.6478ZM22.0682 15.4839C22.5568 15.9034 22.9669 16.6327 23.2227 17.7878L24.6584 17.4699C24.365 16.1448 23.8462 15.0723 23.0261 14.3682L22.0682 15.4839ZM23.2227 17.7878C23.4478 18.8047 23.2482 19.6448 22.6406 20.3834L23.7762 21.3176C24.6871 20.2103 24.9756 18.9027 24.6584 17.4699L23.2227 17.7878ZM22.6368 20.388C22.0368 21.1296 20.9952 21.7197 19.3844 22.0764L19.7023 23.5121C21.4903 23.1162 22.892 22.4105 23.78 21.313L22.6368 20.388ZM19.3844 22.0764L13.9647 23.2763L14.2826 24.7121L19.7023 23.5121L19.3844 22.0764ZM13.9647 23.2763C13.8753 23.2961 13.8451 23.28 13.8199 23.264L13.0294 24.504C13.4156 24.7502 13.8513 24.8076 14.2826 24.7121L13.9647 23.2763ZM13.8464 23.2817C13.8129 23.2582 13.764 23.2123 13.7323 23.069L12.2966 23.3869C12.3936 23.8254 12.6183 24.2169 13.0029 24.4862L13.8464 23.2817ZM13.7323 23.069L10.4781 8.3715L9.04238 8.68939L12.2966 23.3869L13.7323 23.069ZM10.4781 8.3715C10.4654 8.31401 10.4669 8.29954 10.467 8.31494C10.467 8.32402 10.4667 8.35341 10.4579 8.39593C10.4491 8.43786 10.4286 8.50941 10.378 8.5889L9.13795 7.79846C9.00779 8.00265 8.99571 8.21391 8.99647 8.32495C8.99734 8.45261 9.01782 8.57847 9.04238 8.68939L10.4781 8.3715ZM10.378 8.5889C10.3111 8.6938 10.2332 8.73791 10.2133 8.74823C10.1924 8.75906 10.1956 8.75349 10.241 8.74342L9.92315 7.30767C9.7226 7.35208 9.35358 7.46019 9.13795 7.79846L10.378 8.5889ZM10.241 8.74342L15.477 7.58412L15.1592 6.14837L9.92315 7.30767L10.241 8.74342ZM15.477 7.58412C17.1957 7.20359 18.4271 7.28318 19.265 7.67813C20.0619 8.05377 20.6245 8.77348 20.8943 9.99203L22.3301 9.67415C21.9863 8.1216 21.1931 6.96129 19.892 6.34798C18.6319 5.75398 17.023 5.7357 15.1592 6.14837L15.477 7.58412ZM14.1838 11.0201L14.8499 14.0285L16.2857 13.7106L15.6196 10.7022L14.1838 11.0201ZM15.7267 14.5874L15.8416 14.562L15.5237 13.1262L15.4089 13.1517L15.7267 14.5874ZM15.8416 14.562C16.6335 14.3866 17.3247 14.0995 17.7852 13.6197C18.2894 13.0944 18.4345 12.4263 18.2797 11.7273L16.844 12.0452C16.9061 12.326 16.8464 12.4742 16.7243 12.6014C16.5583 12.7743 16.2015 12.9762 15.5237 13.1262L15.8416 14.562ZM18.2797 11.7273C18.1342 11.0699 17.8134 10.4774 17.207 10.1601L16.5254 11.4631C16.6093 11.507 16.7522 11.6309 16.844 12.0452L18.2797 11.7273ZM17.2243 10.1695C16.6533 9.85103 15.9347 9.87936 15.225 10.0365L15.5429 11.4722C16.1499 11.3378 16.4194 11.4043 16.5081 11.4538L17.2243 10.1695ZM15.225 10.0365L14.7428 10.1433L15.0607 11.579L15.5429 11.4722L15.225 10.0365ZM15.4499 16.7383L16.1109 19.7238L17.5467 19.4059L16.8857 16.4205L15.4499 16.7383ZM16.9877 20.2827L17.4011 20.1912L17.0832 18.7554L16.6698 18.847L16.9877 20.2827ZM17.4011 20.1912C18.1213 20.0317 18.773 19.7522 19.1802 19.2468L18.035 18.3243C17.9382 18.4444 17.6797 18.6234 17.0832 18.7554L17.4011 20.1912ZM19.1802 19.2468C19.619 18.7021 19.6736 18.0227 19.5255 17.3537L18.0897 17.6716C18.1789 18.0743 18.1001 18.2435 18.035 18.3243L19.1802 19.2468ZM19.5255 17.3537C19.3818 16.7048 19.0606 16.0956 18.42 15.8118L17.8242 17.1562C17.8603 17.1722 17.9961 17.2488 18.0897 17.6716L19.5255 17.3537ZM18.4374 15.8197C17.8836 15.5569 17.1869 15.6007 16.4911 15.7548L16.809 17.1905C17.4299 17.053 17.7146 17.1044 17.8068 17.1482L18.4374 15.8197ZM16.4911 15.7548L16.0088 15.8615L16.3267 17.2973L16.809 17.1905L16.4911 15.7548Z" fill="black" mask="url(#path-3-outside-1_4069_8034)"/>
    <path d="M9.26232 7.64917L8.11976 10.3967L11.9563 25.1734L20.0636 24.2914L21.0999 23.5725L23.2657 21.4927L21.364 22.2997L13.62 24.0143L12.8465 23.8372L9.26232 7.64917Z" fill="black"/>
    <defs>
    <linearGradient id="paint0_linear_4069_8034" x1="2.72" y1="-1.008" x2="36.7558" y2="16.0171" gradientUnits="userSpaceOnUse">
    <stop stop-color="#FFD400"/>
    <stop offset="0.233976" stop-color="#FFD204"/>
    <stop offset="0.731744" stop-color="#0CA8FE"/>
    <stop offset="1" stop-color="#0CA9FF"/>
    </linearGradient>
    </defs>
    </svg>
    