<svg width="96" height="96" viewBox="0 0 96 96" fill="none" xmlns="http://www.w3.org/2000/svg">
    <rect width="96" height="96" rx="18" fill="#5A00CD"/>
    <rect x="38" y="52" width="16" height="7" fill="#5A00CD"/>
    <mask id="path-3-outside-1_5910_14055" maskUnits="userSpaceOnUse" x="14" y="15" width="64" height="67" fill="black">
    <rect fill="white" x="14" y="15" width="64" height="67"/>
    <path d="M47.8376 71.8325C38.7439 71.8325 30.5468 69.2709 24.8473 64.2758L32.8523 54.7339C37.7193 58.4482 43.2907 59.9852 48.542 59.9852C51.2317 59.9852 52.3844 59.2807 52.3844 58.064V57.9359C52.3844 56.6551 50.9755 55.9507 46.1725 54.9901C36.1183 52.9408 27.2808 50.059 27.2808 40.5811V40.453C27.2808 31.9357 33.9409 25.3396 46.3006 25.3396C54.946 25.3396 61.35 27.3889 66.5372 31.4875L59.2366 41.6057C55.01 38.5318 49.9509 37.187 45.7883 37.187C43.5469 37.187 42.5223 37.9555 42.5223 39.0442V39.1722C42.5223 40.389 43.739 41.1575 48.478 42.054C59.9411 44.1673 67.6258 47.4974 67.6258 56.527V56.6551C67.6258 66.0689 59.877 71.8325 47.8376 71.8325Z"/>
    </mask>
    <path d="M47.8376 71.8325C38.7439 71.8325 30.5468 69.2709 24.8473 64.2758L32.8523 54.7339C37.7193 58.4482 43.2907 59.9852 48.542 59.9852C51.2317 59.9852 52.3844 59.2807 52.3844 58.064V57.9359C52.3844 56.6551 50.9755 55.9507 46.1725 54.9901C36.1183 52.9408 27.2808 50.059 27.2808 40.5811V40.453C27.2808 31.9357 33.9409 25.3396 46.3006 25.3396C54.946 25.3396 61.35 27.3889 66.5372 31.4875L59.2366 41.6057C55.01 38.5318 49.9509 37.187 45.7883 37.187C43.5469 37.187 42.5223 37.9555 42.5223 39.0442V39.1722C42.5223 40.389 43.739 41.1575 48.478 42.054C59.9411 44.1673 67.6258 47.4974 67.6258 56.527V56.6551C67.6258 66.0689 59.877 71.8325 47.8376 71.8325Z" fill="#F0F0F0"/>
    <path d="M24.8473 64.2758L17.1862 57.8487C13.6907 62.0154 14.1661 68.2117 18.2563 71.7964L24.8473 64.2758ZM32.8523 54.7339L38.919 46.7844C34.6712 43.5427 28.6254 44.2132 25.1912 48.3068L32.8523 54.7339ZM46.1725 54.9901L44.1754 64.7886C44.1874 64.791 44.1994 64.7935 44.2114 64.7959L46.1725 54.9901ZM66.5372 31.4875L74.6467 37.3386C77.7788 32.9975 76.937 26.9598 72.7368 23.6411L66.5372 31.4875ZM59.2366 41.6057L53.3549 49.6931C55.5051 51.2569 58.1895 51.9 60.8149 51.4804C63.4403 51.0608 65.7905 49.613 67.3461 47.4569L59.2366 41.6057ZM48.478 42.054L46.619 51.8797C46.6343 51.8826 46.6496 51.8855 46.6649 51.8883L48.478 42.054ZM47.8376 61.8325C40.4723 61.8325 34.8508 59.746 31.4383 56.7553L18.2563 71.7964C26.2429 78.7959 37.0155 81.8325 47.8376 81.8325V61.8325ZM32.5084 70.7029L40.5134 61.161L25.1912 48.3068L17.1862 57.8487L32.5084 70.7029ZM26.7855 62.6834C33.5796 67.8683 41.342 69.9852 48.542 69.9852V49.9852C45.2395 49.9852 41.859 49.0281 38.919 46.7844L26.7855 62.6834ZM48.542 69.9852C50.4317 69.9852 53.3459 69.7931 56.1246 68.3325C57.6634 67.5236 59.3469 66.2243 60.612 64.2254C61.9009 62.1891 62.3844 60.0111 62.3844 58.064H42.3844C42.3844 56.7252 42.7238 55.0916 43.7124 53.5295C44.6774 52.0049 45.9046 51.1099 46.819 50.6292C48.349 49.825 49.342 49.9852 48.542 49.9852V69.9852ZM62.3844 58.064V57.9359H42.3844V58.064H62.3844ZM62.3844 57.9359C62.3844 55.5539 61.6496 53.0319 59.9242 50.8564C58.4107 48.9481 56.5976 47.898 55.3995 47.3241C53.1782 46.2601 50.4725 45.652 48.1337 45.1843L44.2114 64.7959C45.2998 65.0135 46.0362 65.1857 46.5281 65.3204C47.0631 65.4669 47.048 65.4998 46.7597 65.3617C46.5142 65.2441 45.3534 64.6703 44.2542 63.2843C42.9431 61.6311 42.3844 59.6775 42.3844 57.9359H62.3844ZM48.1697 45.1915C43.1247 44.1632 40.0265 43.1952 38.2475 42.0858C37.8805 41.857 37.6606 41.6742 37.5374 41.5557C37.4203 41.4432 37.3857 41.3846 37.383 41.3801C37.3799 41.3749 37.3772 41.37 37.3737 41.3615C37.3701 41.353 37.3607 41.3295 37.349 41.2852C37.3269 41.2016 37.2808 40.9837 37.2808 40.5811H17.2808C17.2808 49.3008 21.7492 55.3678 27.6651 59.0568C32.8184 62.2702 39.1661 63.7676 44.1754 64.7886L48.1697 45.1915ZM37.2808 40.5811V40.453H17.2808V40.5811H37.2808ZM37.2808 40.453C37.2808 38.966 37.7771 38.0447 38.6118 37.3391C39.5786 36.5218 41.8392 35.3396 46.3006 35.3396V15.3396C38.4023 15.3396 31.153 17.4555 25.6998 22.0656C20.1145 26.7873 17.2808 33.4228 17.2808 40.453H37.2808ZM46.3006 35.3396C53.228 35.3396 57.2922 36.9276 60.3376 39.3338L72.7368 23.6411C65.4077 17.8503 56.664 15.3396 46.3006 15.3396V35.3396ZM58.4277 25.6363L51.1271 35.7546L67.3461 47.4569L74.6467 37.3386L58.4277 25.6363ZM65.1184 33.5184C59.0435 29.1003 51.8857 27.187 45.7883 27.187V47.187C48.0161 47.187 50.9765 47.9633 53.3549 49.6931L65.1184 33.5184ZM45.7883 27.187C43.7669 27.187 40.848 27.4931 38.0951 29.1777C34.8064 31.1901 32.5223 34.771 32.5223 39.0442H52.5223C52.5223 40.3928 52.1888 41.9016 51.3593 43.3262C50.5415 44.7309 49.4695 45.6648 48.5344 46.237C47.6355 46.7871 46.8651 47.0074 46.4488 47.0976C46.2274 47.1455 46.0585 47.167 45.9542 47.1769C45.8491 47.187 45.7914 47.187 45.7883 47.187V27.187ZM32.5223 39.0442V39.1722H52.5223V39.0442H32.5223ZM32.5223 39.1722C32.5223 41.3205 33.1187 43.7312 34.7154 45.9139C36.1537 47.88 37.9296 49.0053 39.1873 49.6454C41.4795 50.812 44.2327 51.4283 46.619 51.8797L50.3369 32.2283C49.3057 32.0332 48.6396 31.8769 48.2284 31.7625C47.7749 31.6363 47.881 31.6288 48.2587 31.821C48.6198 32.0048 49.7954 32.6538 50.8575 34.1057C52.0779 35.774 52.5223 37.6323 52.5223 39.1722H32.5223ZM46.6649 51.8883C52.2155 52.9116 55.2701 54 56.8219 55.0296C57.1398 55.2405 57.3165 55.4009 57.4056 55.4928C57.4889 55.5789 57.5096 55.6192 57.5098 55.6195C57.512 55.6234 57.5161 55.6313 57.5223 55.6472C57.5286 55.6633 57.5407 55.6973 57.5546 55.7548C57.5819 55.8672 57.6258 56.1099 57.6258 56.527H77.6259C77.6259 48.4267 73.825 42.3091 67.8792 38.3642C62.7229 34.943 56.2036 33.3098 50.291 32.2198L46.6649 51.8883ZM57.6258 56.527V56.6551H77.6259V56.527H57.6258ZM57.6258 56.6551C57.6258 58.3008 57.099 59.1254 56.1933 59.8142C54.9932 60.7268 52.3981 61.8325 47.8376 61.8325V81.8325C55.3165 81.8325 62.6155 80.0564 68.2997 75.7338C74.2783 71.1873 77.6259 64.4232 77.6259 56.6551H57.6258Z" fill="white" mask="url(#path-3-outside-1_5910_14055)"/>
    <mask id="path-5-outside-2_5910_14055" maskUnits="userSpaceOnUse" x="19" y="20" width="54" height="57" fill="black">
    <rect fill="white" x="19" y="20" width="54" height="57"/>
    <path d="M47.8376 71.8325C38.7439 71.8325 30.5468 69.2709 24.8473 64.2758L32.8523 54.7339C37.7193 58.4482 43.2907 59.9852 48.542 59.9852C51.2317 59.9852 52.3844 59.2807 52.3844 58.064V57.9359C52.3844 56.6551 50.9755 55.9507 46.1725 54.9901C36.1183 52.9408 27.2808 50.059 27.2808 40.5811V40.453C27.2808 31.9357 33.9409 25.3396 46.3006 25.3396C54.946 25.3396 61.35 27.3889 66.5372 31.4875L59.2366 41.6057C55.01 38.5318 49.9509 37.187 45.7883 37.187C43.5469 37.187 42.5223 37.9555 42.5223 39.0442V39.1722C42.5223 40.389 43.739 41.1575 48.478 42.054C59.9411 44.1673 67.6258 47.4974 67.6258 56.527V56.6551C67.6258 66.0689 59.877 71.8325 47.8376 71.8325Z"/>
    </mask>
    <path d="M47.8376 71.8325C38.7439 71.8325 30.5468 69.2709 24.8473 64.2758L32.8523 54.7339C37.7193 58.4482 43.2907 59.9852 48.542 59.9852C51.2317 59.9852 52.3844 59.2807 52.3844 58.064V57.9359C52.3844 56.6551 50.9755 55.9507 46.1725 54.9901C36.1183 52.9408 27.2808 50.059 27.2808 40.5811V40.453C27.2808 31.9357 33.9409 25.3396 46.3006 25.3396C54.946 25.3396 61.35 27.3889 66.5372 31.4875L59.2366 41.6057C55.01 38.5318 49.9509 37.187 45.7883 37.187C43.5469 37.187 42.5223 37.9555 42.5223 39.0442V39.1722C42.5223 40.389 43.739 41.1575 48.478 42.054C59.9411 44.1673 67.6258 47.4974 67.6258 56.527V56.6551C67.6258 66.0689 59.877 71.8325 47.8376 71.8325Z" fill="#F0F0F0"/>
    <path d="M24.8473 64.2758L21.0167 61.0623C19.269 63.1456 19.5067 66.2438 21.5518 68.0361L24.8473 64.2758ZM32.8523 54.7339L35.8856 50.7591C33.7617 49.1383 30.7388 49.4735 29.0217 51.5204L32.8523 54.7339ZM46.1725 54.9901L45.174 59.8893C45.1799 59.8906 45.1859 59.8918 45.1919 59.893L46.1725 54.9901ZM66.5372 31.4875L70.5919 34.413C72.158 32.2425 71.7371 29.2236 69.637 27.5643L66.5372 31.4875ZM59.2366 41.6057L56.2958 45.6494C57.3709 46.4313 58.7131 46.7529 60.0258 46.5431C61.3385 46.3333 62.5136 45.6094 63.2914 44.5313L59.2366 41.6057ZM48.478 42.054L47.5485 46.9669C47.5561 46.9683 47.5638 46.9698 47.5714 46.9712L48.478 42.054ZM47.8376 66.8325C39.6081 66.8325 32.6988 64.5085 28.1428 60.5156L21.5518 68.0361C28.3949 74.0334 37.8797 76.8325 47.8376 76.8325V66.8325ZM28.6778 67.4894L36.6828 57.9474L29.0217 51.5204L21.0167 61.0623L28.6778 67.4894ZM29.8189 58.7087C35.6494 63.1583 42.3164 64.9852 48.542 64.9852V54.9852C44.2651 54.9852 39.7891 53.7381 35.8856 50.7591L29.8189 58.7087ZM48.542 64.9852C50.1592 64.9852 52.0966 64.8011 53.7982 63.9067C54.7237 63.4202 55.6796 62.6695 56.3871 61.5515C57.1066 60.4147 57.3844 59.1896 57.3844 58.064H47.3844C47.3844 57.5467 47.5181 56.866 47.9373 56.2035C48.3448 55.5598 48.8443 55.2133 49.1454 55.055C49.4215 54.9099 49.5571 54.9061 49.4157 54.9308C49.2864 54.9534 49.0101 54.9852 48.542 54.9852V64.9852ZM57.3844 58.064V57.9359H47.3844V58.064H57.3844ZM57.3844 57.9359C57.3844 56.5848 56.9729 55.1817 56.0067 53.9634C55.1464 52.8786 54.0767 52.2345 53.2395 51.8335C51.6526 51.0734 49.5233 50.5612 47.1531 50.0872L45.1919 59.893C46.3365 60.1219 47.1991 60.32 47.8487 60.4979C48.52 60.6817 48.8257 60.8073 48.9196 60.8523C49.035 60.9076 48.6178 60.7397 48.1717 60.1773C47.9311 59.874 47.7164 59.498 47.5711 59.0621C47.4277 58.632 47.3844 58.2413 47.3844 57.9359H57.3844ZM47.1711 50.0908C42.135 49.0643 38.2245 47.9639 35.6019 46.3286C33.3607 44.931 32.2808 43.3297 32.2808 40.5811H22.2808C22.2808 47.3104 25.6197 51.8889 30.3107 54.8141C34.6204 57.5014 40.1558 58.8665 45.174 59.8893L47.1711 50.0908ZM32.2808 40.5811V40.453H22.2808V40.5811H32.2808ZM32.2808 40.453C32.2808 37.5802 33.3615 35.2304 35.3838 33.5207C37.4722 31.7552 40.98 30.3396 46.3006 30.3396V20.3396C39.2616 20.3396 33.2594 22.2221 28.9278 25.884C24.5302 29.6017 22.2808 34.8086 22.2808 40.453H32.2808ZM46.3006 30.3396C54.087 30.3396 59.3211 32.1582 63.4374 35.4106L69.637 27.5643C63.3788 22.6196 55.805 20.3396 46.3006 20.3396V30.3396ZM62.4824 28.5619L55.1819 38.6802L63.2914 44.5313L70.5919 34.413L62.4824 28.5619ZM62.1775 37.5621C57.0268 33.8161 50.9183 32.187 45.7883 32.187V42.187C48.9835 42.187 52.9933 43.2476 56.2958 45.6494L62.1775 37.5621ZM45.7883 32.187C44.2172 32.187 42.3495 32.4361 40.7049 33.4425C38.7924 34.6128 37.5223 36.6354 37.5223 39.0442H47.5223C47.5223 39.5824 47.3876 40.2107 47.0384 40.8105C46.695 41.4002 46.258 41.7681 45.9246 41.9722C45.3526 42.3221 45.118 42.187 45.7883 42.187V32.187ZM37.5223 39.0442V39.1722H47.5223V39.0442H37.5223ZM37.5223 39.1722C37.5223 40.3985 37.8585 41.7419 38.7509 42.9618C39.5641 44.0735 40.6022 44.7552 41.4552 45.1893C43.0495 46.0007 45.1706 46.517 47.5485 46.9669L49.4074 37.1412C48.2995 36.9316 47.4841 36.7453 46.8883 36.5796C46.5942 36.4977 46.3771 36.4274 46.2214 36.3707C46.1448 36.3428 46.0882 36.3201 46.0489 36.3033C46.0294 36.295 46.015 36.2885 46.0052 36.284C45.9954 36.2794 45.9908 36.2771 45.9908 36.2771C45.9909 36.2771 45.9962 36.2798 46.0061 36.2854C46.0161 36.291 46.0313 36.2998 46.051 36.312C46.09 36.3362 46.1507 36.3764 46.2262 36.4351C46.3778 36.5529 46.5997 36.7539 46.8219 37.0577C47.0513 37.3712 47.2411 37.7403 47.3657 38.1479C47.4879 38.5479 47.5223 38.9032 47.5223 39.1722H37.5223ZM47.5714 46.9712C53.2125 48.0111 57.1333 49.2358 59.5863 50.8633C61.6445 52.2289 62.6259 53.8049 62.6259 56.527H72.6259C72.6259 50.2195 69.7648 45.6157 65.1149 42.5305C60.8597 39.7073 55.2065 38.2102 49.3845 37.1369L47.5714 46.9712ZM62.6259 56.527V56.6551H72.6259V56.527H62.6259ZM62.6259 56.6551C62.6259 59.8314 61.3938 62.1409 59.2199 63.7941C56.8988 65.5592 53.1277 66.8325 47.8376 66.8325V76.8325C54.5869 76.8325 60.71 75.224 65.2731 71.7539C69.9835 68.1719 72.6259 62.8926 72.6259 56.6551H62.6259Z" fill="#111111" mask="url(#path-5-outside-2_5910_14055)"/>
    </svg>
    